<svg width="1198" height="1362" viewBox="0 0 1198 1362" fill="none" xmlns="http://www.w3.org/2000/svg">
<path d="M0 116C0 99.4315 13.4315 86 30 86H114V1275H30C13.4315 1275 0 1261.57 0 1245V116Z" fill="#FFC700"/>
<rect x="114" y="86" width="234" height="1189" fill="#A7A9E1"/>
<path d="M348 86H1168C1184.57 86 1198 99.4315 1198 116V1245C1198 1261.57 1184.57 1275 1168 1275H348V86Z" fill="black"/>
<path d="M584.1 1072.2C579.9 1072.2 576.4 1071.03 573.6 1068.7C570.8 1065.9 569.4 1062.17 569.4 1057.5C569.4 1052.83 569.4 1048.17 569.4 1043.5C569.4 1038.83 569.4 1034.17 569.4 1029.5C570.333 1009.43 574.767 991.7 582.7 976.3C590.633 960.9 600.2 946.9 611.4 934.3C623.067 921.7 634.733 909.8 646.4 898.6C658.067 886.933 667.867 875.267 675.8 863.6C684.2 851.933 689.333 839.567 691.2 826.5C693.067 809.7 689.8 795.7 681.4 784.5C673 772.833 661.567 763.967 647.1 757.9C632.633 751.833 617.7 748.8 602.3 748.8C577.567 748.8 556.333 755.333 538.6 768.4C521.333 781 509.9 802.467 504.3 832.8C502.9 838.4 500.567 842.367 497.3 844.7C494.033 847.033 490.3 848.2 486.1 848.2H452.5C448.3 848.2 444.567 846.8 441.3 844C438.5 841.2 437.1 837.467 437.1 832.8C437.567 813.667 441.767 795.467 449.7 778.2C457.633 760.933 468.833 745.767 483.3 732.7C498.233 719.633 515.733 709.367 535.8 701.9C556.333 693.967 579.2 690 604.4 690C632.867 690 657.133 693.967 677.2 701.9C697.733 709.367 714.067 719.633 726.2 732.7C738.8 745.3 747.9 759.3 753.5 774.7C759.1 790.1 761.433 805.5 760.5 820.9C759.1 839.567 754.433 856.367 746.5 871.3C738.567 885.767 729 899.3 717.8 911.9C706.6 924.033 695.167 936.167 683.5 948.3C672.3 959.967 662.733 972.333 654.8 985.4C646.867 998 642.2 1011.77 640.8 1026.7C640.333 1031.83 639.867 1036.97 639.4 1042.1C639.4 1046.77 639.4 1051.43 639.4 1056.1C638.467 1061.23 636.6 1065.2 633.8 1068C631 1070.8 627.033 1072.2 621.9 1072.2H584.1ZM578.5 1187C573.833 1187 569.867 1185.6 566.6 1182.8C563.8 1179.53 562.4 1175.57 562.4 1170.9V1128.2C562.4 1123.53 563.8 1119.8 566.6 1117C569.867 1113.73 573.833 1112.1 578.5 1112.1H624C629.133 1112.1 633.1 1113.73 635.9 1117C639.167 1119.8 640.8 1123.53 640.8 1128.2V1170.9C640.8 1175.57 639.167 1179.53 635.9 1182.8C633.1 1185.6 629.133 1187 624 1187H578.5Z" fill="#A7A9E1"/>
<path d="M596.6 662C567.2 662 541.533 658.5 519.6 651.5C497.667 644.033 479.233 634.233 464.3 622.1C449.367 609.967 437.933 596.667 430 582.2C422.533 567.267 418.567 552.333 418.1 537.4C418.1 533.2 419.5 529.933 422.3 527.6C425.1 524.8 428.6 523.4 432.8 523.4H467.1C471.3 523.4 475.033 524.567 478.3 526.9C482.033 528.767 484.833 532.733 486.7 538.8C491.367 555.6 499.3 568.667 510.5 578C522.167 587.333 535.467 593.867 550.4 597.6C565.8 600.867 581.2 602.5 596.6 602.5C628.8 602.5 654.933 594.8 675 579.4C695.067 564 705.1 541.367 705.1 511.5C705.1 481.167 696 459.467 677.8 446.4C659.6 433.333 634.4 426.8 602.2 426.8H535.7C531.033 426.8 527.067 425.4 523.8 422.6C521 419.8 519.6 415.833 519.6 410.7V391.8C519.6 387.6 520.3 384.1 521.7 381.3C523.567 378.033 525.433 375.233 527.3 372.9L663.1 224.5H456.6C451.933 224.5 447.967 223.1 444.7 220.3C441.9 217.5 440.5 213.533 440.5 208.4V181.8C440.5 176.667 441.9 172.7 444.7 169.9C447.967 166.633 451.933 165 456.6 165H735.9C741.033 165 745 166.633 747.8 169.9C751.067 172.7 752.7 176.667 752.7 181.8V207C752.7 210.267 751.767 213.3 749.9 216.1C748.5 218.433 746.867 220.767 745 223.1L609.9 373.6L621.1 374.3C651.9 375.233 678.733 380.833 701.6 391.1C724.933 401.367 742.9 416.767 755.5 437.3C768.567 457.367 775.1 482.8 775.1 513.6C775.1 544.867 767.4 571.467 752 593.4C736.6 615.333 715.367 632.367 688.3 644.5C661.7 656.167 631.133 662 596.6 662Z" fill="white"/>
</svg>
